<mxfile host="app.diagrams.net" agent="Mozilla/5.0 (Windows NT 10.0; Win64; x64) AppleWebKit/537.36 (KHTML, like Gecko) Chrome/132.0.0.0 Safari/537.36" version="26.0.15">
  <diagram name="第 1 页" id="fMOL35PwU6l-wltFrk2g">
    <mxGraphModel dx="954" dy="652" grid="1" gridSize="10" guides="1" tooltips="1" connect="1" arrows="1" fold="1" page="1" pageScale="1" pageWidth="827" pageHeight="1169" math="0" shadow="0">
      <root>
        <mxCell id="0" />
        <mxCell id="1" parent="0" />
        <mxCell id="N0KACNX9AU4WdKLAjXez-14" style="edgeStyle=orthogonalEdgeStyle;rounded=0;orthogonalLoop=1;jettySize=auto;html=1;exitX=0;exitY=0;exitDx=63;exitDy=20;exitPerimeter=0;" edge="1" parent="1">
          <mxGeometry relative="1" as="geometry">
            <mxPoint x="400" y="268.5" as="targetPoint" />
            <mxPoint x="183" y="268.5" as="sourcePoint" />
          </mxGeometry>
        </mxCell>
        <mxCell id="N0KACNX9AU4WdKLAjXez-19" style="edgeStyle=orthogonalEdgeStyle;rounded=0;orthogonalLoop=1;jettySize=auto;html=1;exitX=0;exitY=0;exitDx=43;exitDy=0;exitPerimeter=0;entryX=0.5;entryY=0;entryDx=0;entryDy=0;" edge="1" parent="1" source="N0KACNX9AU4WdKLAjXez-1" target="N0KACNX9AU4WdKLAjXez-8">
          <mxGeometry relative="1" as="geometry" />
        </mxCell>
        <mxCell id="N0KACNX9AU4WdKLAjXez-20" style="edgeStyle=orthogonalEdgeStyle;rounded=0;orthogonalLoop=1;jettySize=auto;html=1;exitX=0;exitY=0;exitDx=63;exitDy=61.5;exitPerimeter=0;entryX=0;entryY=0.5;entryDx=0;entryDy=0;" edge="1" parent="1" source="N0KACNX9AU4WdKLAjXez-1" target="N0KACNX9AU4WdKLAjXez-7">
          <mxGeometry relative="1" as="geometry">
            <Array as="points">
              <mxPoint x="183" y="309" />
            </Array>
          </mxGeometry>
        </mxCell>
        <mxCell id="N0KACNX9AU4WdKLAjXez-1" value="" style="shape=cube;whiteSpace=wrap;html=1;boundedLbl=1;backgroundOutline=1;darkOpacity=0.05;darkOpacity2=0.1;fillColor=#1ba1e2;fontColor=#ffffff;strokeColor=#006EAF;" vertex="1" parent="1">
          <mxGeometry x="120" y="240" width="63" height="103" as="geometry" />
        </mxCell>
        <mxCell id="N0KACNX9AU4WdKLAjXez-24" style="edgeStyle=orthogonalEdgeStyle;rounded=0;orthogonalLoop=1;jettySize=auto;html=1;exitX=1;exitY=0.25;exitDx=0;exitDy=0;entryX=0.5;entryY=1;entryDx=0;entryDy=0;" edge="1" parent="1" source="N0KACNX9AU4WdKLAjXez-2" target="N0KACNX9AU4WdKLAjXez-4">
          <mxGeometry relative="1" as="geometry" />
        </mxCell>
        <mxCell id="N0KACNX9AU4WdKLAjXez-2" value="" style="rounded=0;whiteSpace=wrap;html=1;fillColor=#fff2cc;strokeColor=#d6b656;" vertex="1" parent="1">
          <mxGeometry x="360" y="300" width="23" height="36" as="geometry" />
        </mxCell>
        <mxCell id="N0KACNX9AU4WdKLAjXez-3" value="" style="shape=cube;whiteSpace=wrap;html=1;boundedLbl=1;backgroundOutline=1;darkOpacity=0.05;darkOpacity2=0.1;fillColor=#008a00;fontColor=#ffffff;strokeColor=#005700;" vertex="1" parent="1">
          <mxGeometry x="570" y="240" width="63" height="103" as="geometry" />
        </mxCell>
        <mxCell id="N0KACNX9AU4WdKLAjXez-17" style="edgeStyle=orthogonalEdgeStyle;rounded=0;orthogonalLoop=1;jettySize=auto;html=1;exitX=1;exitY=0.5;exitDx=0;exitDy=0;entryX=0;entryY=0.5;entryDx=0;entryDy=0;" edge="1" parent="1" source="N0KACNX9AU4WdKLAjXez-4" target="N0KACNX9AU4WdKLAjXez-8">
          <mxGeometry relative="1" as="geometry" />
        </mxCell>
        <mxCell id="N0KACNX9AU4WdKLAjXez-4" value="" style="shape=sumEllipse;perimeter=ellipsePerimeter;whiteSpace=wrap;html=1;backgroundOutline=1;" vertex="1" parent="1">
          <mxGeometry x="396" y="260" width="18" height="18" as="geometry" />
        </mxCell>
        <mxCell id="N0KACNX9AU4WdKLAjXez-23" style="edgeStyle=orthogonalEdgeStyle;rounded=0;orthogonalLoop=1;jettySize=auto;html=1;exitX=1;exitY=0.5;exitDx=0;exitDy=0;entryX=0;entryY=0.25;entryDx=0;entryDy=0;" edge="1" parent="1" source="N0KACNX9AU4WdKLAjXez-7" target="N0KACNX9AU4WdKLAjXez-2">
          <mxGeometry relative="1" as="geometry" />
        </mxCell>
        <mxCell id="N0KACNX9AU4WdKLAjXez-7" value="" style="shape=sumEllipse;perimeter=ellipsePerimeter;whiteSpace=wrap;html=1;backgroundOutline=1;" vertex="1" parent="1">
          <mxGeometry x="300" y="300" width="18" height="18" as="geometry" />
        </mxCell>
        <mxCell id="N0KACNX9AU4WdKLAjXez-8" value="" style="shape=orEllipse;perimeter=ellipsePerimeter;whiteSpace=wrap;html=1;backgroundOutline=1;" vertex="1" parent="1">
          <mxGeometry x="510" y="260" width="18" height="18" as="geometry" />
        </mxCell>
        <mxCell id="N0KACNX9AU4WdKLAjXez-25" style="edgeStyle=orthogonalEdgeStyle;rounded=0;orthogonalLoop=1;jettySize=auto;html=1;exitX=1;exitY=0.5;exitDx=0;exitDy=0;entryX=0;entryY=0.282;entryDx=0;entryDy=0;entryPerimeter=0;" edge="1" parent="1" source="N0KACNX9AU4WdKLAjXez-8" target="N0KACNX9AU4WdKLAjXez-3">
          <mxGeometry relative="1" as="geometry" />
        </mxCell>
        <mxCell id="N0KACNX9AU4WdKLAjXez-27" value="&lt;font style=&quot;font-size: 17px;&quot; face=&quot;Times New Roman&quot;&gt;reshape&lt;/font&gt;" style="text;html=1;align=center;verticalAlign=middle;resizable=0;points=[];autosize=1;strokeColor=none;fillColor=none;" vertex="1" parent="1">
          <mxGeometry x="230" y="240" width="80" height="30" as="geometry" />
        </mxCell>
        <mxCell id="N0KACNX9AU4WdKLAjXez-28" value="&lt;font style=&quot;font-size: 17px;&quot; face=&quot;Times New Roman&quot;&gt;reshape&lt;/font&gt;" style="text;html=1;align=center;verticalAlign=middle;resizable=0;points=[];autosize=1;strokeColor=none;fillColor=none;" vertex="1" parent="1">
          <mxGeometry x="230" y="278" width="80" height="30" as="geometry" />
        </mxCell>
        <mxCell id="N0KACNX9AU4WdKLAjXez-29" value="&lt;font style=&quot;font-size: 17px;&quot; face=&quot;Times New Roman&quot;&gt;reshape&amp;amp;transpose&lt;/font&gt;" style="text;html=1;align=center;verticalAlign=middle;resizable=0;points=[];autosize=1;strokeColor=none;fillColor=none;" vertex="1" parent="1">
          <mxGeometry x="210" y="378" width="150" height="30" as="geometry" />
        </mxCell>
        <mxCell id="N0KACNX9AU4WdKLAjXez-30" value="&lt;font style=&quot;font-size: 17px;&quot; face=&quot;Times New Roman&quot;&gt;reshape&lt;/font&gt;" style="text;html=1;align=center;verticalAlign=middle;resizable=0;points=[];autosize=1;strokeColor=none;fillColor=none;" vertex="1" parent="1">
          <mxGeometry x="420" y="240" width="80" height="30" as="geometry" />
        </mxCell>
        <mxCell id="N0KACNX9AU4WdKLAjXez-31" value="&lt;font style=&quot;font-size: 18px;&quot; face=&quot;Times New Roman&quot;&gt;C×H×W&lt;/font&gt;" style="text;html=1;align=center;verticalAlign=middle;resizable=0;points=[];autosize=1;strokeColor=none;fillColor=none;" vertex="1" parent="1">
          <mxGeometry x="80" y="336" width="90" height="40" as="geometry" />
        </mxCell>
        <mxCell id="N0KACNX9AU4WdKLAjXez-32" value="&lt;font style=&quot;font-size: 18px;&quot; face=&quot;Times New Roman&quot;&gt;C×H×W&lt;/font&gt;" style="text;html=1;align=center;verticalAlign=middle;resizable=0;points=[];autosize=1;strokeColor=none;fillColor=none;" vertex="1" parent="1">
          <mxGeometry x="570" y="338" width="90" height="40" as="geometry" />
        </mxCell>
        <mxCell id="N0KACNX9AU4WdKLAjXez-33" style="edgeStyle=orthogonalEdgeStyle;rounded=0;orthogonalLoop=1;jettySize=auto;html=1;exitX=1;exitY=1;exitDx=0;exitDy=0;exitPerimeter=0;entryX=0.002;entryY=0.489;entryDx=0;entryDy=0;entryPerimeter=0;" edge="1" parent="1" source="N0KACNX9AU4WdKLAjXez-1" target="N0KACNX9AU4WdKLAjXez-29">
          <mxGeometry relative="1" as="geometry" />
        </mxCell>
        <mxCell id="N0KACNX9AU4WdKLAjXez-34" value="" style="endArrow=classic;html=1;rounded=0;entryX=0.5;entryY=1;entryDx=0;entryDy=0;exitX=0.667;exitY=0.022;exitDx=0;exitDy=0;exitPerimeter=0;" edge="1" parent="1" source="N0KACNX9AU4WdKLAjXez-29" target="N0KACNX9AU4WdKLAjXez-7">
          <mxGeometry width="50" height="50" relative="1" as="geometry">
            <mxPoint x="268" y="386" as="sourcePoint" />
            <mxPoint x="318" y="336" as="targetPoint" />
          </mxGeometry>
        </mxCell>
        <mxCell id="N0KACNX9AU4WdKLAjXez-35" value="&lt;font style=&quot;font-size: 18px;&quot; face=&quot;Times New Roman&quot;&gt;X&lt;/font&gt;" style="text;html=1;align=center;verticalAlign=middle;resizable=0;points=[];autosize=1;strokeColor=none;fillColor=none;" vertex="1" parent="1">
          <mxGeometry x="374" y="330" width="40" height="40" as="geometry" />
        </mxCell>
        <mxCell id="N0KACNX9AU4WdKLAjXez-36" value="&lt;font style=&quot;font-size: 18px;&quot; face=&quot;Times New Roman&quot;&gt;C×C&lt;/font&gt;" style="text;html=1;align=center;verticalAlign=middle;resizable=0;points=[];autosize=1;strokeColor=none;fillColor=none;" vertex="1" parent="1">
          <mxGeometry x="333" y="268" width="60" height="40" as="geometry" />
        </mxCell>
        <mxCell id="N0KACNX9AU4WdKLAjXez-37" value="&lt;font style=&quot;font-size: 18px;&quot; face=&quot;Times New Roman&quot;&gt;A&lt;/font&gt;&lt;span style=&quot;color: rgba(0, 0, 0, 0); font-family: monospace; font-size: 0px; text-align: start;&quot;&gt;%3CmxGraphModel%3E%3Croot%3E%3CmxCell%20id%3D%220%22%2F%3E%3CmxCell%20id%3D%221%22%20parent%3D%220%22%2F%3E%3CmxCell%20id%3D%222%22%20value%3D%22%26lt%3Bfont%20style%3D%26quot%3Bfont-size%3A%2018px%3B%26quot%3B%20face%3D%26quot%3BTimes%20New%20Roman%26quot%3B%26gt%3BX%26lt%3B%2Ffont%26gt%3B%22%20style%3D%22text%3Bhtml%3D1%3Balign%3Dcenter%3BverticalAlign%3Dmiddle%3Bresizable%3D0%3Bpoints%3D%5B%5D%3Bautosize%3D1%3BstrokeColor%3Dnone%3BfillColor%3Dnone%3B%22%20vertex%3D%221%22%20parent%3D%221%22%3E%3CmxGeometry%20x%3D%22374%22%20y%3D%22330%22%20width%3D%2240%22%20height%3D%2240%22%20as%3D%22geometry%22%2F%3E%3C%2FmxCell%3E%3C%2Froot%3E%3C%2FmxGraphModel%3E&lt;/span&gt;" style="text;html=1;align=center;verticalAlign=middle;resizable=0;points=[];autosize=1;strokeColor=none;fillColor=none;" vertex="1" parent="1">
          <mxGeometry x="110" y="200" width="40" height="40" as="geometry" />
        </mxCell>
        <mxCell id="N0KACNX9AU4WdKLAjXez-38" value="&lt;font style=&quot;font-size: 18px;&quot; face=&quot;Times New Roman&quot;&gt;E&lt;/font&gt;" style="text;html=1;align=center;verticalAlign=middle;resizable=0;points=[];autosize=1;strokeColor=none;fillColor=none;" vertex="1" parent="1">
          <mxGeometry x="575" y="200" width="30" height="40" as="geometry" />
        </mxCell>
        <mxCell id="N0KACNX9AU4WdKLAjXez-39" value="&lt;font style=&quot;font-size: 18px;&quot; face=&quot;Times New Roman&quot;&gt;Channel attention block&lt;/font&gt;" style="text;html=1;align=center;verticalAlign=middle;resizable=0;points=[];autosize=1;strokeColor=none;fillColor=none;" vertex="1" parent="1">
          <mxGeometry x="245" y="415" width="200" height="40" as="geometry" />
        </mxCell>
      </root>
    </mxGraphModel>
  </diagram>
</mxfile>
